<?xml version="1.0" standalone="no"?>
<!DOCTYPE svg PUBLIC "-//W3C//DTD SVG 20010904//EN"
 "http://www.w3.org/TR/2001/REC-SVG-20010904/DTD/svg10.dtd">
<svg version="1.0" xmlns="http://www.w3.org/2000/svg"
 width="304.000000pt" height="304.000000pt" viewBox="0 0 304.000000 304.000000"
 preserveAspectRatio="xMidYMid meet">
<metadata>
Created by potrace 1.14, written by Peter Selinger 2001-2017
</metadata>
<g transform="translate(0.000000,304.000000) scale(0.100000,-0.100000)"
fill="#000000" stroke="none">
<path d="M1321 2281 c-1 -8 -4 -12 -7 -9 -9 10 -135 -45 -162 -69 -7 -7 -16
-13 -20 -13 -24 0 -157 -151 -145 -164 3 -3 -2 -6 -12 -6 -10 0 -16 -3 -13 -6
4 -3 -5 -30 -18 -60 -13 -31 -22 -60 -19 -65 4 -5 0 -12 -9 -15 -8 -3 -12 -12
-10 -19 6 -16 -12 -29 -21 -15 -3 5 -16 10 -29 10 -12 0 -27 5 -33 11 -11 11
-151 14 -193 4 -14 -4 -31 -7 -37 -7 -7 -1 -13 -5 -13 -10 0 -5 -3 -7 -7 -5
-9 5 -53 -16 -99 -47 -83 -56 -159 -171 -167 -254 -2 -17 -6 -34 -9 -37 -20
-20 29 -255 53 -255 6 0 7 -4 4 -10 -3 -5 1 -10 10 -10 9 0 13 -5 10 -11 -7
-11 87 -109 104 -109 5 0 11 -4 13 -10 2 -5 13 -11 25 -13 12 -2 25 -6 29 -10
4 -3 14 -2 24 3 10 5 20 7 22 4 9 -9 98 -13 103 -4 3 5 18 5 33 1 32 -8 64 -7
82 4 9 5 11 4 6 -3 -5 -9 0 -9 18 -2 14 5 28 6 30 1 6 -9 37 -8 54 3 6 4 12 3
12 -3 0 -6 11 -6 30 -1 16 5 32 5 34 2 4 -7 55 -8 81 -2 6 1 12 1 15 0 20 -7
40 -7 40 1 0 6 5 7 12 3 16 -10 58 -12 52 -2 -3 4 -1 8 5 8 5 0 13 -5 16 -10
5 -7 11 -8 19 -1 7 6 17 6 26 1 9 -5 19 -5 27 2 7 6 13 7 13 2 0 -5 58 -9 130
-9 71 0 130 4 130 8 0 4 9 3 19 -3 14 -7 22 -7 26 0 4 6 12 7 18 3 16 -10 37
-10 65 -1 12 4 22 3 22 -2 0 -12 43 -8 52 5 5 6 8 6 8 -1 0 -7 14 -10 35 -8
19 2 51 6 70 8 21 2 35 -1 35 -8 0 -6 4 -5 9 3 6 9 10 10 16 2 5 -9 10 -9 21
0 8 6 14 7 14 2 0 -12 49 -11 68 0 6 5 12 5 12 0 0 -4 18 -9 40 -9 22 -1 40 3
40 8 0 5 5 6 12 2 21 -13 268 -13 268 0 0 8 3 8 8 0 9 -13 234 -13 244 1 5 6
8 5 8 -3 0 -10 5 -10 20 -2 11 6 20 8 20 5 0 -4 7 1 16 9 8 9 20 13 26 10 6
-4 8 -3 5 3 -4 5 2 19 12 29 45 49 58 81 66 157 2 22 6 41 9 44 3 3 0 15 -6
27 -7 11 -11 29 -9 39 1 9 -3 17 -8 17 -6 0 -11 8 -11 18 0 16 -55 93 -73 100
-4 2 -13 9 -20 16 -18 18 -80 45 -89 40 -4 -3 -8 -1 -8 4 0 8 -34 14 -84 13
-22 0 -45 21 -49 46 -2 10 -7 26 -11 35 -4 9 -8 22 -10 30 -1 7 -4 18 -7 23
-4 6 -9 22 -13 38 -3 15 -11 27 -16 27 -5 0 -6 7 -3 17 4 11 3 14 -5 9 -8 -4
-12 0 -12 11 0 10 -18 38 -40 62 -22 24 -40 48 -40 54 0 6 -3 8 -6 4 -5 -5
-33 15 -69 50 -7 7 -15 9 -19 6 -3 -3 -8 2 -12 11 -3 9 -10 14 -14 11 -5 -3
-14 0 -22 7 -7 7 -18 14 -24 15 -38 7 -63 13 -89 21 -16 5 -66 7 -110 6 -120
-5 -135 -5 -132 6 3 10 -51 70 -62 70 -6 0 -11 4 -11 8 0 10 -125 77 -165 87
-50 14 -67 17 -143 20 -41 2 -84 0 -97 -5 -16 -6 -25 -5 -29 3 -3 8 -5 7 -5
-2z"/>
<path d="M1694 966 c-8 -43 2 -54 43 -51 22 1 27 7 30 31 3 25 -1 33 -22 42
-19 9 -25 9 -25 -1 0 -8 -3 -7 -9 2 -7 11 -11 5 -17 -23z"/>
<path d="M2030 990 c-19 -11 -24 -57 -8 -66 35 -22 72 -1 66 37 -3 25 -38 41
-58 29z"/>
<path d="M1051 968 c-6 -16 -4 -28 5 -39 29 -32 78 -11 63 27 -4 12 -5 25 -2
28 4 3 -8 6 -26 6 -24 0 -34 -6 -40 -22z"/>
<path d="M1375 975 c-3 -8 -7 -21 -9 -29 -4 -13 12 -25 42 -32 6 -1 18 6 25
17 8 10 17 16 21 12 4 -4 4 0 0 10 -3 9 -10 17 -16 17 -5 0 -6 5 -3 10 4 6 -7
10 -25 10 -18 0 -32 -6 -35 -15z"/>
<path d="M949 819 c-12 -12 -14 -20 -6 -28 8 -8 7 -11 -3 -11 -10 -1 -8 -4 5
-12 22 -13 75 -20 76 -10 0 4 2 15 4 24 8 42 -46 68 -76 37z"/>
<path d="M1291 827 c-27 -13 -36 -44 -19 -64 10 -12 67 -15 69 -3 6 25 7 61 2
56 -3 -3 -11 1 -17 9 -9 12 -15 12 -35 2z"/>
<path d="M1594 828 c-3 -4 -3 -12 0 -17 4 -5 2 -11 -3 -13 -18 -7 8 -48 31
-48 26 0 63 36 47 45 -5 4 -7 10 -4 15 5 9 -19 22 -48 25 -10 1 -20 -2 -23 -7z"/>
<path d="M1921 826 c-5 -6 -11 -20 -15 -32 -8 -25 31 -50 63 -39 17 5 21 13
19 40 -2 28 -6 34 -30 37 -16 3 -32 0 -37 -6z"/>
</g>
</svg>
